<svg width="37" height="38" viewBox="0 0 37 38" fill="none" xmlns="http://www.w3.org/2000/svg">
<path d="M11 16.914C11 16.914 11.5793 22.3214 13.836 24.578C16.0926 26.8347 21.5 27.414 21.5 27.414C21.5 27.414 16.0926 27.9933 13.836 30.25C11.5793 32.5066 11 37.914 11 37.914C11 37.914 10.4207 32.5066 8.16405 30.25C5.90743 27.9933 0.5 27.414 0.5 27.414C0.5 27.414 5.90743 26.8347 8.16405 24.578C10.4207 22.3214 11 16.914 11 16.914Z" fill="white"/>
<path d="M26 8C26 8 26.5793 13.4074 28.836 15.664C31.0926 17.9207 36.5 18.5 36.5 18.5C36.5 18.5 31.0926 19.0793 28.836 21.336C26.5793 23.5926 26 29 26 29C26 29 25.4207 23.5926 23.164 21.336C20.9074 19.0793 15.5 18.5 15.5 18.5C15.5 18.5 20.9074 17.9207 23.164 15.664C25.4207 13.4074 26 8 26 8Z" fill="white"/>
<path d="M11 0.0859375C11 0.0859375 11.5793 5.49337 13.836 7.74999C16.0926 10.0066 21.5 10.5859 21.5 10.5859C21.5 10.5859 16.0926 11.1653 13.836 13.4219C11.5793 15.6785 11 21.0859 11 21.0859C11 21.0859 10.4207 15.6785 8.16405 13.4219C5.90743 11.1653 0.5 10.5859 0.5 10.5859C0.5 10.5859 5.90743 10.0066 8.16405 7.74999C10.4207 5.49337 11 0.0859375 11 0.0859375Z" fill="white"/>
</svg>
