<svg width="94" height="14" viewBox="0 0 94 14" fill="none" xmlns="http://www.w3.org/2000/svg">
<path d="M6.99996 9.91668L3.57123 12.011L4.50345 8.10286L1.45215 5.48908L5.45704 5.168L6.99996 1.45834L8.54294 5.168L12.5478 5.48908L9.49651 8.10286L10.4287 12.011L6.99996 9.91668Z" fill="white"/>
<path d="M27 9.91668L23.5712 12.011L24.5035 8.10286L21.4521 5.48908L25.457 5.168L27 1.45834L28.5429 5.168L32.5478 5.48908L29.4965 8.10286L30.4287 12.011L27 9.91668Z" fill="white"/>
<path d="M47 9.91668L43.5712 12.011L44.5035 8.10286L41.4521 5.48908L45.457 5.168L47 1.45834L48.5429 5.168L52.5478 5.48908L49.4965 8.10286L50.4287 12.011L47 9.91668Z" fill="white"/>
<path d="M67 9.91668L63.5712 12.011L64.5035 8.10286L61.4521 5.48908L65.457 5.168L67 1.45834L68.5429 5.168L72.5478 5.48908L69.4965 8.10286L70.4287 12.011L67 9.91668Z" fill="white"/>
<path d="M87 8.54958L88.643 9.5532L88.1963 7.68041L89.6586 6.42788L87.7393 6.27399L87 4.4963V8.54958ZM87 9.91668L83.5712 12.011L84.5035 8.10286L81.4521 5.48908L85.457 5.168L87 1.45834L88.5429 5.168L92.5478 5.48908L89.4965 8.10286L90.4287 12.011L87 9.91668Z" fill="white"/>
</svg>
