<svg width="126" height="100" viewBox="0 0 126 100" fill="none" xmlns="http://www.w3.org/2000/svg">
<g clip-path="url(#clip0_2122_1979)">
<path fill-rule="evenodd" clip-rule="evenodd" d="M0.538818 99.6995C0.10915 99.3101 0.31056 95.9802 0.793937 94.812C1.08933 94.1541 1.80098 92.986 2.41863 92.2341C3.81505 90.5423 4.04331 89.5621 6.00368 77.7329C9.19934 58.5053 11.1865 50.6102 14.6373 43.373C16.9468 38.5795 22.8547 32.7119 27.0172 31.0873C28.2256 30.6307 29.5952 30.4024 31.1259 30.3756C33.1802 30.3756 33.7307 30.5099 35.9194 31.5841C41.0754 34.1218 46.3119 40.8353 52.4482 52.7719C54.2071 56.1958 54.7308 56.8404 54.7308 55.6722C54.7308 54.2758 56.1943 49.3749 57.3759 46.8774C59.5914 42.084 62.3977 38.7272 67.0569 35.3033C69.3664 33.6115 70.7762 33.2222 72.4949 33.7727C74.2539 34.3635 75.422 35.5316 77.9061 39.1166C79.1145 40.9427 80.3229 42.6345 80.5512 42.9299C81.4374 44.004 83.5186 45.1722 84.5927 45.1722C86.1234 45.1722 88.7015 42.5674 92.7699 36.7938C94.5288 34.2829 97.2411 30.5635 98.839 28.5092C103.592 22.279 108.587 15.0821 107.969 15.3373C105.297 16.4114 102.129 17.2976 98.2616 17.9824C95.7507 18.439 92.2328 19.0968 90.4738 19.4459C88.4866 19.8353 87.1171 19.9696 86.9559 19.8085C86.1369 18.9894 89.4265 14.6928 93.2801 11.4971C96.1804 9.1205 97.456 8.664 106.909 6.5425C113.461 5.079 115.421 4.3539 119.288 2.0176C120.953 1.0106 122.618 0.191597 122.968 0.191597C123.518 0.191597 123.585 0.352699 123.424 1.5879C123.29 2.3399 123.035 3.7094 122.833 4.5822C122.31 6.7036 122.35 19.8085 122.86 22.6685C123.29 24.9511 123.867 26.3206 124.914 27.4887L125.599 28.2406L124.821 29.7446C123.612 32.054 118.295 37.3979 116.187 38.5124L114.361 39.4523L113.703 38.7004C112.105 36.74 111.675 30.9798 112.468 22.373C112.669 20.2515 112.763 17.969 112.696 17.2573L112.602 15.9818L110.024 19.7279C94.7302 41.8557 84.8882 52.7183 76.7513 56.4241C73.0723 58.1159 70.6823 57.0149 67.0032 51.8589C65.7679 50.1268 64.6937 48.7573 64.6266 48.8647C64.5595 48.9318 64.1432 50.5967 63.7136 52.5168C62.7334 56.8537 61.5249 60.3448 60.1956 62.7214C58.3024 66.0782 53.0524 71.0059 50.9443 71.4221C49.6016 71.6772 49.1854 71.0596 45.7346 64.252C38.9942 50.7847 35.6643 45.1454 32.6297 41.8289C29.5952 38.5393 25.8221 36.9683 22.5191 37.6934C21.0152 37.9887 20.8541 38.1499 20.2767 39.5463C18.2895 44.1786 16.7857 50.8518 15.4832 60.8013C12.2876 84.9163 11.5088 88.9579 9.45444 92.2206C6.52733 96.8127 1.73383 100.854 0.552238 99.6861L0.538818 99.6995Z" fill="white"/>
</g>
<defs>
<clipPath id="clip0_2122_1979">
<rect width="126" height="100" fill="white" transform="matrix(1 0 0 -1 0 100)"/>
</clipPath>
</defs>
</svg>
